<svg width="31" height="31" viewBox="0 0 31 31" fill="none" xmlns="http://www.w3.org/2000/svg">
<circle cx="15.5" cy="15.5" r="15.5" fill="white"/>
<path d="M9.4517 9.53541H11.1074L15.4185 20.6256H13.5754L12.4039 17.611H8.124L6.96812 20.6256H5.10934L9.4517 9.53541ZM12.0602 16.3145L10.2796 11.4567L8.4364 16.3145H12.0602ZM15.66 15.0024C15.66 14.3255 15.7798 13.6643 16.0193 13.0187C16.2588 12.3626 16.6077 11.7691 17.0658 11.238C17.5344 10.6965 18.102 10.2695 18.7684 9.95715C19.4349 9.63434 20.1898 9.47293 21.0333 9.47293C22.033 9.47293 22.8973 9.70202 23.6262 10.1602C24.3552 10.608 24.8967 11.1859 25.2507 11.894L23.8762 12.8156C23.6679 12.3678 23.4024 12.0138 23.0795 11.7535C22.7671 11.4931 22.4235 11.3109 22.0486 11.2067C21.6842 11.1026 21.3249 11.0505 20.9708 11.0505C20.3877 11.0505 19.8774 11.1703 19.4401 11.4098C19.0027 11.6389 18.633 11.9461 18.3311 12.3314C18.0395 12.7167 17.8156 13.1488 17.6594 13.6279C17.5136 14.1069 17.4407 14.5859 17.4407 15.0649C17.4407 15.596 17.5292 16.1114 17.7063 16.6113C17.8833 17.1007 18.128 17.5381 18.4404 17.9234C18.7632 18.2982 19.1433 18.595 19.5807 18.8137C20.018 19.0324 20.497 19.1417 21.0177 19.1417C21.3718 19.1417 21.7414 19.0792 22.1267 18.9543C22.512 18.8293 22.8661 18.6367 23.1889 18.3763C23.5221 18.1056 23.7824 17.7515 23.9699 17.3142L25.4225 18.142C25.1934 18.6939 24.8342 19.1625 24.3448 19.5478C23.8657 19.9331 23.3243 20.2247 22.7203 20.4226C22.1267 20.6204 21.5384 20.7193 20.9552 20.7193C20.1742 20.7193 19.4609 20.5579 18.8153 20.2351C18.1697 19.9019 17.6125 19.4645 17.1439 18.923C16.6753 18.3711 16.3109 17.7567 16.0505 17.0799C15.7902 16.3926 15.66 15.7001 15.66 15.0024Z" fill="#4F4A48"/>
</svg>
