<svg width="32" height="32" viewBox="0 0 32 32" fill="none" xmlns="http://www.w3.org/2000/svg">
<circle cx="16" cy="16" r="16" fill="white"/>
<path d="M11.5796 10.956H13.0232L16.7821 20.6256H15.175L14.1536 17.9971H10.4219L9.41413 20.6256H7.79345L11.5796 10.956ZM13.854 16.8667L12.3014 12.6312L10.6943 16.8667H13.854ZM17.8009 18.9232C17.9461 19.0322 18.1686 19.1411 18.4682 19.2501C18.7678 19.35 19.1219 19.3999 19.5305 19.3999C19.93 19.3999 20.2523 19.3363 20.4974 19.2092C20.7517 19.073 20.9423 18.8733 21.0694 18.61C21.2056 18.3376 21.2964 17.9926 21.3418 17.5749C21.3963 17.1573 21.4235 16.6624 21.4235 16.0904V10.956H22.9625V15.8725C22.9625 16.5898 22.9216 17.2481 22.8399 17.8473C22.7673 18.4466 22.6175 18.9686 22.3905 19.4135C22.1635 19.8493 21.823 20.1853 21.3691 20.4213C20.9242 20.6574 20.3249 20.7754 19.5713 20.7754C19.1264 20.7754 18.7315 20.7255 18.3865 20.6256C18.0415 20.5257 17.7237 20.3759 17.4331 20.1762L17.8009 18.9232Z" fill="#4F4A48"/>
</svg>
