<svg width="113" height="45" viewBox="0 0 113 45" fill="none" xmlns="http://www.w3.org/2000/svg">
<path d="M7.74564 0.908934H9.5751L16.556 18H14.2451L12.223 12.993H5.04959L3.05162 18H0.740723L7.74564 0.908934ZM11.7416 11.308L8.66037 3.41241L5.48288 11.308H11.7416Z" fill="white"/>
<path d="M21.7256 4.90487V18H19.5591V0.908934H21.3886L31.8358 14.2688V0.933005H34.0022V18H32.0283L21.7256 4.90487Z" fill="white"/>
<path d="M51.1301 2.83468H45.2325V18H43.0661V2.83468H37.1684V0.908934H51.1301V2.83468Z" fill="white"/>
<path d="M60.7294 18.1203C59.5258 18.1203 58.4345 17.8796 57.4556 17.3982C56.4767 16.9167 55.6261 16.2668 54.904 15.4484C54.1979 14.6139 53.6522 13.6831 53.2671 12.656C52.8819 11.6129 52.6894 10.5457 52.6894 9.45445C52.6894 8.31505 52.89 7.23182 53.2911 6.20475C53.7084 5.16163 54.2781 4.23888 55.0003 3.43648C55.7385 2.61804 56.597 1.97612 57.5759 1.51073C58.5549 1.02929 59.6221 0.788574 60.7775 0.788574C61.9811 0.788574 63.0724 1.03732 64.0513 1.5348C65.0302 2.03229 65.8727 2.69828 66.5788 3.53277C67.2849 4.36726 67.8306 5.29804 68.2157 6.32511C68.6009 7.35217 68.7934 8.40331 68.7934 9.47853C68.7934 10.6179 68.5928 11.7092 68.1917 12.7523C67.7905 13.7794 67.2207 14.7021 66.4825 15.5206C65.7604 16.323 64.9098 16.9569 63.9309 17.4222C62.952 17.8876 61.8848 18.1203 60.7294 18.1203ZM54.8799 9.45445C54.8799 10.321 55.0163 11.1636 55.2891 11.982C55.578 12.7844 55.9792 13.4985 56.4927 14.1244C57.0062 14.7503 57.6241 15.2478 58.3462 15.6169C59.0684 15.986 59.8708 16.1705 60.7534 16.1705C61.6682 16.1705 62.4866 15.9779 63.2088 15.5928C63.9309 15.2076 64.5407 14.6941 65.0382 14.0522C65.5518 13.4103 65.9369 12.6881 66.1937 11.8857C66.4665 11.0833 66.6029 10.2729 66.6029 9.45445C66.6029 8.58786 66.4585 7.75337 66.1696 6.95098C65.8968 6.14858 65.4956 5.43445 64.966 4.80858C64.4525 4.16666 63.8346 3.66918 63.1125 3.31612C62.4064 2.94702 61.62 2.76247 60.7534 2.76247C59.8387 2.76247 59.0203 2.95504 58.2981 3.34019C57.5759 3.7093 56.9581 4.21481 56.4446 4.85672C55.9471 5.49864 55.5619 6.2208 55.2891 7.02319C55.0163 7.80954 54.8799 8.61996 54.8799 9.45445Z" fill="white"/>
<path d="M74.6922 4.90487V18H72.5257V0.908934H74.3552L84.8024 14.2688V0.933005H86.9688V18H84.9949L74.6922 4.90487Z" fill="white"/>
<path d="M91.7719 18V0.908934H93.9384V18H91.7719Z" fill="white"/>
<path d="M103.947 0.908934H105.776L112.757 18H110.446L108.424 12.993H101.251L99.2526 18H96.9417L103.947 0.908934ZM107.943 11.308L104.861 3.41241L101.684 11.308H107.943Z" fill="white"/>
<path d="M1.34252 41.4484C1.64743 41.657 2.06468 41.8576 2.59426 42.0501C3.13989 42.2267 3.7818 42.3149 4.52001 42.3149C5.27426 42.3149 5.89211 42.1946 6.37354 41.9539C6.85498 41.6971 7.22408 41.32 7.48085 40.8225C7.73762 40.3089 7.91414 39.659 8.01043 38.8727C8.10672 38.0863 8.15486 37.1555 8.15486 36.0803V26.9089H10.3213V35.5989C10.3213 36.8667 10.2571 38.0301 10.1288 39.0893C10.0004 40.1485 9.74361 41.0712 9.35846 41.8576C8.97331 42.6279 8.39558 43.2216 7.62528 43.6389C6.87103 44.0561 5.86001 44.2648 4.59222 44.2648C3.78983 44.2648 3.08372 44.1765 2.4739 44C1.86408 43.8234 1.3024 43.5587 0.788866 43.2056L1.34252 41.4484Z" fill="white"/>
<path d="M19.7515 26.9089H21.581L28.5618 44H26.2509L24.2289 38.993H17.0554L15.0575 44H12.7466L19.7515 26.9089ZM23.7474 37.308L20.6662 29.4124L17.4887 37.308H23.7474Z" fill="white"/>
<path d="M30.6594 26.9089L36.3163 41.2799L41.9492 26.9089H44.236L37.3033 44H35.3294L28.3726 26.9089H30.6594Z" fill="white"/>
<path d="M47.2615 44V26.9089H49.428V44H47.2615Z" fill="white"/>
<path d="M65.8394 42.0742V44H54.2367V26.9089H65.6227V28.8347H56.4032V34.3712H64.4191V36.1766H56.4032V42.0742H65.8394Z" fill="white"/>
<path d="M69.5337 44V26.9089H76.8515C77.6058 26.9089 78.2958 27.0694 78.9217 27.3904C79.5476 27.6953 80.0932 28.1125 80.5586 28.6421C81.024 29.1556 81.385 29.7414 81.6418 30.3994C81.8986 31.0413 82.027 31.6992 82.027 32.3733C82.027 33.1596 81.8745 33.9058 81.5696 34.6119C81.2807 35.318 80.8635 35.9198 80.3179 36.4173C79.7883 36.9148 79.1624 37.2598 78.4403 37.4524L82.5806 44H80.1253L76.2256 37.8616H71.7001V44H69.5337ZM71.7001 35.9359H76.8756C77.4694 35.9359 77.9829 35.7754 78.4162 35.4545C78.8655 35.1174 79.2106 34.6761 79.4513 34.1305C79.708 33.5849 79.8364 32.9991 79.8364 32.3733C79.8364 31.7313 79.692 31.1456 79.4031 30.616C79.1143 30.0704 78.7371 29.6371 78.2718 29.3161C77.8064 28.9952 77.2928 28.8347 76.7311 28.8347H71.7001V35.9359Z" fill="white"/>
<path d="M91.276 26.9089H93.1055L100.086 44H97.7754L95.7534 38.993H88.58L86.582 44H84.2711L91.276 26.9089ZM95.272 37.308L92.1908 29.4124L89.0133 37.308H95.272Z" fill="white"/>
</svg>
