<svg width="19" height="14" viewBox="0 0 19 14" fill="none" xmlns="http://www.w3.org/2000/svg">
<path fill-rule="evenodd" clip-rule="evenodd" d="M18.6771 0.6568C18.8645 0.844328 18.9698 1.09864 18.9698 1.3638C18.9698 1.62896 18.8645 1.88327 18.6771 2.0708L7.43506 13.3138C7.3329 13.416 7.21162 13.4971 7.07813 13.5524C6.94463 13.6077 6.80155 13.6362 6.65706 13.6362C6.51256 13.6362 6.36948 13.6077 6.23598 13.5524C6.10249 13.4971 5.98121 13.416 5.87906 13.3138L0.293056 7.7278C0.200146 7.63489 0.126445 7.52459 0.0761628 7.4032C0.0258802 7.2818 9.78968e-10 7.15169 0 7.0203C-9.78968e-10 6.88891 0.0258802 6.7588 0.0761628 6.6374C0.126445 6.51601 0.200146 6.40571 0.293056 6.3128C0.385966 6.21989 0.496267 6.14619 0.61766 6.09591C0.739053 6.04562 0.869161 6.01974 1.00056 6.01974C1.13195 6.01974 1.26206 6.04562 1.38345 6.09591C1.50485 6.14619 1.61515 6.21989 1.70806 6.3128L6.65806 11.2628L17.2621 0.6568C17.4496 0.469329 17.7039 0.364014 17.9691 0.364014C18.2342 0.364014 18.4895 0.469329 18.6771 0.6568Z" fill="#CBCBCB"/>
</svg>
