<svg width="8" height="14" viewBox="0 0 8 14" fill="none" xmlns="http://www.w3.org/2000/svg">
<path fill-rule="evenodd" clip-rule="evenodd" d="M7.37616 7.71931C7.56363 7.53178 7.66895 7.27747 7.66895 7.01231C7.66895 6.74714 7.56363 6.49283 7.37616 6.30531L1.71916 0.648306C1.62691 0.552796 1.51657 0.476613 1.39456 0.424204C1.27256 0.371795 1.14134 0.344209 1.00856 0.343055C0.875781 0.341902 0.744102 0.367203 0.621205 0.417484C0.498309 0.467765 0.386656 0.542018 0.292764 0.635911C0.198871 0.729804 0.124618 0.841455 0.074337 0.964352C0.024056 1.08725 -0.0012455 1.21893 -9.15527e-05 1.35171C0.00106239 1.48449 0.0286484 1.61571 0.0810575 1.73771C0.133467 1.85971 0.209649 1.97006 0.305159 2.06231L5.25516 7.01231L0.305159 11.9623C0.123001 12.1509 0.0222063 12.4035 0.0244846 12.6657C0.026763 12.9279 0.131932 13.1787 0.31734 13.3641C0.502748 13.5495 0.753561 13.6547 1.01576 13.657C1.27795 13.6593 1.53056 13.5585 1.71916 13.3763L7.37616 7.71931Z" fill="#373737"/>
</svg>
